<?xml version="1.0" standalone="no"?>
<!DOCTYPE svg PUBLIC "-//W3C//DTD SVG 20010904//EN"
 "http://www.w3.org/TR/2001/REC-SVG-20010904/DTD/svg10.dtd">
<svg version="1.0" xmlns="http://www.w3.org/2000/svg"
 width="864.000000pt" height="864.000000pt" viewBox="0 0 864.000000 864.000000"
 preserveAspectRatio="xMidYMid meet">
<metadata>
Created by potrace 1.14, written by Peter Selinger 2001-2017
</metadata>
<g transform="translate(0.000000,864.000000) scale(0.100000,-0.100000)"
fill="#000000" stroke="none">
<path d="M4852 7411 c-43 -11 -69 -36 -98 -93 l-24 -48 -45 32 c-37 26 -55 32
-98 32 -102 0 -247 -94 -375 -242 -90 -105 -134 -185 -140 -253 -4 -56 12
-129 28 -129 4 0 41 16 82 35 115 55 191 49 261 -20 24 -25 47 -79 47 -112 0
-19 7 -16 48 17 20 16 54 36 74 45 27 11 40 23 44 43 45 185 292 219 407 56
51 -73 47 -186 -9 -253 l-24 -28 52 -94 c28 -52 75 -134 104 -184 29 -49 60
-107 70 -127 20 -44 20 -44 55 -20 100 68 192 174 240 276 54 114 52 186 -7
254 l-35 41 35 23 c126 82 58 281 -171 498 -185 175 -402 280 -521 251z"/>
<path d="M4794 6806 c-35 -16 -74 -60 -74 -86 0 -12 15 -20 58 -30 93 -20 130
-39 176 -91 41 -46 44 -47 60 -31 37 42 32 131 -11 182 -52 63 -140 86 -209
56z"/>
<path d="M3305 6709 c-106 -8 -230 -31 -305 -56 -85 -29 -125 -85 -118 -170 5
-53 5 -53 -24 -53 -65 0 -121 -53 -157 -150 -75 -203 -98 -430 -53 -522 46
-94 120 -148 202 -148 22 0 40 -2 40 -4 0 -2 -7 -20 -15 -39 -19 -46 -19 -90
0 -126 24 -48 109 -116 167 -135 87 -28 363 -58 380 -40 4 3 -6 33 -22 67 -57
126 -58 255 -4 380 33 76 61 107 141 159 l61 41 -30 31 c-45 48 -70 104 -76
172 -11 137 54 237 217 333 50 30 91 59 91 65 -1 29 -42 96 -74 121 -46 35
-163 71 -251 77 -38 3 -115 1 -170 -3z m116 -572 c84 -56 108 -175 54 -262
-43 -69 -73 -88 -138 -88 -90 0 -148 53 -167 151 -16 87 13 166 75 203 44 28
132 26 176 -4z"/>
<path d="M3273 6090 c-39 -23 -57 -78 -47 -142 14 -85 101 -135 162 -92 28 19
62 85 62 120 0 63 -64 134 -121 134 -13 0 -38 -9 -56 -20z"/>
<path d="M4211 6690 c-56 -27 -126 -74 -211 -141 -14 -11 -70 -45 -125 -76
-168 -94 -209 -120 -252 -162 -49 -49 -67 -95 -67 -176 0 -75 18 -110 92 -181
31 -29 54 -55 52 -57 -3 -2 -42 -25 -87 -51 -90 -52 -135 -96 -167 -165 -17
-38 -21 -65 -21 -152 l0 -106 47 -94 c67 -134 216 -355 280 -416 33 -31 71
-56 94 -62 64 -18 178 -13 247 10 66 22 195 111 223 154 9 14 21 25 26 25 5 0
40 -31 76 -68 84 -86 142 -115 240 -120 117 -7 185 29 317 168 70 74 157 157
202 194 56 47 76 90 76 165 0 104 -42 181 -134 248 -54 38 -55 53 -6 53 53 0
109 20 139 50 24 25 28 36 28 88 0 87 -35 174 -138 348 -33 55 -78 135 -100
177 -75 141 -121 215 -152 240 -33 28 -120 57 -172 57 -49 0 -131 -44 -200
-108 -68 -64 -72 -62 -81 34 -14 144 -92 187 -226 124z m238 -685 c95 -33 158
-121 168 -233 10 -110 -45 -199 -140 -227 -67 -20 -92 -19 -170 5 -55 17 -73
29 -115 75 -86 94 -91 195 -16 298 61 85 172 118 273 82z"/>
<path d="M4279 5939 c-41 -24 -86 -88 -95 -135 -20 -106 85 -208 216 -209 106
0 160 53 160 157 0 67 -31 130 -83 172 -51 41 -143 48 -198 15z"/>
<path d="M7922 4734 c-76 -53 -55 -168 35 -193 106 -30 177 112 92 183 -36 30
-92 35 -127 10z m102 -8 c93 -39 46 -188 -54 -172 -94 15 -108 140 -20 175 34
13 36 13 74 -3z"/>
<path d="M7940 4644 c0 -34 4 -53 10 -49 6 3 10 13 10 21 0 21 26 17 44 -8
l17 -23 -7 23 c-3 13 0 29 6 37 6 8 9 23 5 35 -5 16 -15 20 -46 20 l-39 0 0
-56z m68 19 c3 -18 -1 -23 -21 -23 -30 0 -36 6 -30 31 8 28 47 21 51 -8z"/>
<path d="M2305 4484 c-256 -40 -486 -246 -551 -495 -21 -79 -24 -252 -5 -329
8 -30 34 -95 59 -145 35 -71 61 -106 121 -165 129 -128 262 -188 431 -197 270
-14 511 128 634 375 46 90 66 176 66 284 0 195 -55 332 -190 468 -91 92 -158
133 -282 176 -70 24 -216 38 -283 28z m251 -320 c74 -36 146 -108 182 -182 24
-52 27 -67 27 -167 0 -106 -1 -112 -34 -173 -38 -70 -110 -140 -181 -174 -38
-19 -62 -22 -150 -23 -95 0 -110 3 -162 28 -123 60 -207 186 -216 321 -11 181
114 351 292 397 63 16 179 3 242 -27z"/>
<path d="M7410 4480 c-124 -22 -243 -102 -298 -201 -29 -52 -45 -144 -38 -212
13 -128 78 -211 204 -262 37 -15 76 -31 87 -36 11 -5 63 -20 115 -35 172 -48
204 -74 205 -164 0 -49 -4 -63 -25 -85 -76 -83 -186 -71 -315 31 -91 73 -114
84 -173 84 -42 0 -54 -5 -85 -35 -43 -42 -55 -90 -38 -154 35 -132 220 -245
422 -258 218 -14 392 76 472 245 30 62 32 75 32 172 0 86 -4 113 -22 152 -56
121 -131 177 -326 238 -254 80 -267 88 -267 163 0 45 25 79 77 106 57 29 175
-2 243 -63 47 -43 74 -56 115 -56 76 1 125 52 125 130 -1 161 -260 283 -510
240z"/>
<path d="M5578 4465 c-14 -8 -37 -32 -50 -52 l-23 -38 0 -555 0 -555 23 -38
c29 -46 68 -67 122 -67 53 0 93 21 118 62 20 32 20 52 23 588 3 517 2 558 -15
592 -10 21 -33 47 -51 58 -38 24 -108 26 -147 5z"/>
<path d="M781 4449 c-46 -28 -55 -38 -69 -78 -16 -44 -17 -1058 -2 -1113 6
-20 26 -50 46 -67 29 -26 43 -31 86 -31 111 0 148 61 148 246 l0 112 43 5 c23
4 86 6 140 7 149 1 235 35 332 134 66 67 96 120 120 211 43 165 -9 350 -131
465 -108 102 -212 130 -489 130 -175 0 -193 -2 -224 -21z m464 -278 c159 -73
150 -309 -15 -367 -19 -7 -81 -13 -137 -14 l-103 0 0 200 0 200 108 0 c83 0
116 -5 147 -19z"/>
<path d="M3365 4456 c-37 -16 -70 -52 -84 -89 -18 -46 -15 -1078 3 -1120 23
-55 69 -87 128 -87 59 0 98 20 124 64 15 25 20 56 22 163 l4 131 31 6 c18 3
76 5 130 6 166 1 253 33 352 134 169 170 182 438 31 631 -66 85 -151 135 -268
159 -100 21 -428 22 -473 2z m435 -276 c20 -5 50 -24 67 -42 93 -96 82 -237
-25 -312 -40 -28 -48 -30 -162 -34 l-120 -4 0 201 0 201 103 0 c56 0 118 -5
137 -10z"/>
<path d="M4466 4447 c-79 -45 -76 -23 -76 -635 0 -600 -2 -586 63 -629 45 -31
123 -32 162 -1 50 39 65 89 65 219 l0 117 33 5 c17 3 76 6 130 6 144 1 204 19
300 88 111 81 177 211 184 363 4 72 1 96 -21 159 -32 92 -75 159 -134 212
-107 94 -208 119 -479 119 -176 0 -190 -2 -227 -23z m474 -279 c26 -14 57 -41
75 -66 26 -38 30 -53 30 -110 0 -80 -23 -124 -86 -168 -38 -26 -49 -28 -160
-32 l-119 -4 0 201 0 201 108 0 c92 0 114 -3 152 -22z"/>
<path d="M6168 4450 c-20 -11 -47 -36 -60 -57 l-23 -38 0 -535 c0 -517 1 -536
20 -569 11 -19 33 -43 48 -55 27 -20 41 -21 362 -24 290 -2 339 -1 365 13 43
22 70 71 70 126 0 40 -5 51 -35 80 -19 19 -45 37 -57 41 -13 3 -125 6 -250 7
l-227 1 -6 33 c-3 17 -5 77 -3 132 l3 100 195 5 c166 4 200 8 223 23 68 44 60
164 -13 202 -23 12 -68 15 -213 15 l-184 0 -7 38 c-8 48 -8 141 0 181 l7 31
220 0 c199 0 225 2 262 20 71 35 97 119 56 186 -37 61 -55 64 -403 64 -289 -1
-316 -2 -350 -20z"/>
<path d="M703 2854 c-3 -9 0 -20 8 -25 8 -5 1554 -9 3630 -9 3154 0 3618 2
3629 15 6 8 9 19 5 25 -4 7 -1125 10 -3636 10 -3319 0 -3630 -1 -3636 -16z"/>
<path d="M837 2540 c-46 -14 -98 -60 -118 -104 -21 -46 -25 -120 -8 -163 17
-45 78 -101 131 -119 57 -19 97 -13 151 23 37 23 38 25 22 43 -16 18 -18 18
-51 -2 -50 -29 -124 -21 -165 18 -76 73 -53 210 44 249 49 20 62 19 115 -6 41
-20 45 -21 60 -5 16 16 15 18 -7 35 -48 36 -116 48 -174 31z"/>
<path d="M4182 2535 c-58 -25 -89 -53 -111 -100 -40 -85 -18 -183 54 -242 73
-60 161 -64 242 -10 32 22 33 23 33 100 l0 77 -80 0 c-79 0 -80 0 -80 -25 0
-23 3 -25 50 -25 l50 0 0 -43 c0 -37 -4 -46 -25 -55 -40 -18 -106 -14 -143 8
-44 27 -76 98 -67 149 13 69 82 131 147 131 12 0 41 -10 66 -21 41 -20 45 -21
60 -5 16 16 15 18 -7 35 -53 40 -132 51 -189 26z"/>
<path d="M4979 2527 c-19 -12 -40 -35 -47 -51 -17 -33 -9 -87 16 -109 17 -16
130 -57 155 -57 20 0 47 -33 47 -57 0 -57 -91 -75 -170 -34 -40 21 -44 21 -59
6 -15 -15 -14 -18 8 -36 13 -10 48 -26 78 -35 46 -13 62 -14 99 -4 59 17 94
58 94 112 0 54 -37 87 -124 112 -75 21 -96 36 -96 71 0 52 75 70 145 35 38
-19 41 -19 53 -3 11 15 9 20 -10 35 -54 42 -139 49 -189 15z"/>
<path d="M7295 2531 c-53 -24 -78 -47 -104 -96 -57 -108 10 -250 134 -285 46
-13 91 -4 148 28 30 18 34 34 12 52 -12 10 -20 8 -41 -9 -35 -28 -107 -28
-152 -1 -21 13 -41 38 -53 66 -28 63 -19 117 30 166 49 49 93 57 157 29 44
-20 49 -20 63 -6 15 15 14 18 -4 32 -59 45 -126 54 -190 24z"/>
<path d="M1212 2348 l3 -193 128 -3 127 -3 0 26 0 25 -100 0 -100 0 0 170 0
170 -30 0 -30 0 2 -192z"/>
<path d="M1660 2345 l0 -196 138 3 c133 3 137 4 140 25 3 22 1 22 -110 25
l-113 3 -3 57 -3 57 103 3 c102 3 103 3 103 28 0 25 -1 25 -102 28 l-103 3 0
54 0 54 113 3 c108 3 112 4 115 26 3 22 3 22 -137 22 l-141 0 0 -195z"/>
<path d="M2239 2458 c-18 -46 -46 -112 -62 -148 -32 -70 -57 -137 -57 -151 0
-5 11 -9 25 -9 20 0 28 8 41 40 l16 40 103 0 103 0 16 -40 c13 -32 21 -40 41
-40 14 0 25 6 25 13 0 6 -35 94 -77 195 -77 181 -78 182 -109 182 -30 0 -33
-3 -65 -82z m108 -85 c18 -42 33 -80 33 -85 0 -4 -34 -8 -75 -8 -41 0 -75 4
-75 9 0 5 9 28 19 52 11 24 26 62 35 83 9 22 19 36 23 33 3 -4 21 -41 40 -84z"/>
<path d="M2690 2345 l0 -195 25 0 25 0 0 146 c0 88 4 144 10 142 5 -1 56 -67
114 -145 87 -118 110 -143 131 -143 l25 0 0 195 0 195 -25 0 -24 0 -3 -147 -3
-148 -109 148 c-96 130 -112 147 -137 147 l-29 0 0 -195z"/>
<path d="M3242 2348 c3 -192 3 -193 26 -196 l22 -3 0 195 0 196 -25 0 -25 0 2
-192z"/>
<path d="M3512 2348 l3 -193 25 0 25 0 1 140 c0 77 4 139 8 138 5 -1 55 -65
113 -142 84 -114 109 -141 129 -141 l24 0 0 195 0 195 -25 0 -24 0 -3 -146 -3
-147 -106 144 c-94 128 -109 144 -138 147 l-31 3 2 -193z"/>
<path d="M5400 2345 l0 -195 140 0 140 0 0 25 c0 24 0 24 -112 27 l-113 3 -3
58 -3 57 83 1 c122 2 123 2 126 25 4 26 -27 34 -134 34 l-74 0 0 55 0 55 115
0 115 0 0 25 0 25 -140 0 -140 0 0 -195z"/>
<path d="M5880 2345 l0 -195 25 0 c24 0 25 2 25 71 l0 70 47 -3 c45 -3 48 -5
93 -68 34 -48 53 -66 73 -68 15 -2 27 0 27 4 0 5 -18 34 -40 65 -22 32 -40 61
-40 66 0 6 11 15 25 21 32 15 65 69 65 107 0 42 -20 76 -59 102 -30 20 -46 23
-137 23 l-104 0 0 -195z m217 125 c29 -26 36 -55 22 -82 -21 -39 -41 -47 -116
-48 l-73 0 0 75 0 75 73 0 c59 0 77 -4 94 -20z"/>
<path d="M6350 2536 c0 -3 35 -89 79 -193 l79 -188 32 0 c35 0 27 -15 116 203
19 46 43 103 54 127 25 56 25 55 -8 55 -26 0 -31 -7 -77 -117 -27 -65 -57
-136 -68 -157 l-19 -40 -53 125 c-74 177 -81 189 -110 189 -14 0 -25 -2 -25
-4z"/>
<path d="M6920 2345 l0 -195 25 0 25 0 0 195 0 195 -25 0 -25 0 0 -195z"/>
<path d="M7692 2348 l3 -193 138 -3 137 -3 0 26 0 25 -110 0 -110 0 0 60 0 60
101 0 100 0 -3 28 -3 27 -97 3 -98 3 0 54 0 55 110 0 110 0 0 25 0 25 -140 0
-140 0 2 -192z"/>
</g>
</svg>
